<?xml version="1.0" encoding="utf-8"?>
<!-- Generator: Adobe Illustrator 24.0.2, SVG Export Plug-In . SVG Version: 6.00 Build 0)  -->
<svg version="1.1" id="Layer_1" xmlns="http://www.w3.org/2000/svg" xmlns:xlink="http://www.w3.org/1999/xlink" x="0px" y="0px"
	 viewBox="0 0 1080 1080" style="enable-background:new 0 0 1080 1080;" xml:space="preserve">
<g>
	<path d="M903.33,1046.41c-12-6.78-22.83-16.27-32.69-26.06c-67.05-66.51-133.7-133.43-200.48-200.2
		c-13.75-13.75-17.6-14.53-34.86-4.68c-47.48,27.12-98.33,44.57-152.46,51.41c-68.05,8.61-134.74,1.39-198.45-24.33
		C176.34,798.97,98.18,723.71,51.92,616.47c-18.07-41.89-28.44-85.95-31.36-131.62c-0.21-3.25-1.02-6.47-1.56-9.7
		c0-14.02,0-28.04,0-42.06c1.28-10.51,2.32-21.05,3.89-31.52C45.95,247.23,128.45,136.92,270.44,72.8
		C342.56,40.23,419,31.52,497.46,43.74c115.24,17.94,207.39,74.54,275.61,168.59c59,81.34,84.14,172.93,75.77,273.43
		c-4.98,59.75-22.82,115.4-52.13,167.57c-10.99,19.56-10.41,22.07,5.49,37.96c66.56,66.54,133.12,133.06,199.66,199.61
		c19.16,19.17,34.34,40.68,40.23,67.79c9.82,45.18-19.14,91.8-64.15,103.04c-2.55,0.64-5.04,1.51-7.55,2.27c-8.01,0-16.02,0-24.03,0
		C931.93,1058.28,916.71,1053.97,903.33,1046.41z M434.36,761.63C603.88,762.11,742,624.26,742.11,454.46
		C742.23,285,603.18,146.05,434.44,147c-169.67,0.96-306.92,138.39-306.96,307.37C127.45,623.46,264.96,761.14,434.36,761.63z"/>
	<path d="M285.05,266.21c0.18,29.75,28.47,50.02,57.26,39.78c26.98-9.6,54.22-16.95,83-14.65c71.04,5.67,123.9,39.56,156.48,103.42
		c7.98,15.63,16.42,30.12,35.25,33.74c16.73,3.21,31.17-1.56,41.95-15c11.03-13.76,12.5-29.26,5.35-45.1
		c-36.31-80.34-97.17-132.26-182.35-154.76c-57.29-15.13-113.64-10.01-168.57,11.81C295.43,232.59,284.94,247.83,285.05,266.21z"/>
</g>
</svg>
